<svg width="30" height="52" viewBox="0 0 30 52" fill="none" xmlns="http://www.w3.org/2000/svg">
<path d="M28.046 4.83682C19.8276 12.8113 21.092 25.2159 21.1494 25.7476L21.2644 26.7517L22.2414 26.8699C22.5287 26.9289 24.1954 27.2834 23.9655 29.9415C23.7931 32.2452 21.2644 32.5997 20.2299 32.7178C19.3678 31.5364 16.5517 26.6336 16.2644 12.575C16.2644 11.8661 16.2644 11.1573 16.2644 10.4485C16.2644 10.4485 16.4943 5.42752 16.7241 3.301L15.0575 -0.361328L13.3333 3.18286C13.5632 5.30938 13.7931 10.3303 13.7931 10.3303C13.7931 11.0392 13.7931 11.748 13.7931 12.4568C13.5057 26.5155 10.6897 31.4773 9.82759 32.5997C8.73563 32.5406 6.26437 32.1271 6.09195 29.8234C5.86207 27.1652 7.52874 26.8108 7.81609 26.7517L8.7931 26.6336L8.90805 25.6294C8.96552 25.0978 10.2299 12.6931 2.01149 4.71868L0 2.88751V41.1057H8.33333C9.02299 46.7174 14.023 50.9113 14.2529 51.0885L15 51.7383L15.7471 51.0885C15.977 50.9113 21.0345 46.7174 21.6667 41.1057H30V2.88751L28.046 4.83682ZM6.6092 24.6252C5.4023 25.0978 3.96552 26.3382 3.73563 28.701H2.41379V8.97171C6.6092 14.7606 6.66667 22.1443 6.6092 24.6252ZM8.16092 37.4434L8.21839 38.6248H2.41379V31.1229H3.90805C4.54023 33.4857 6.6092 34.4899 8.50575 34.9034C8.16092 36.0848 8.16092 37.2662 8.16092 37.4434ZM10.5747 37.3843C10.5747 36.7345 10.6322 35.7894 10.9195 35.1987C13.046 35.6713 13.6207 37.4434 13.7931 38.6838H10.6322L10.5747 37.3843ZM13.8506 47.1899C12.6437 45.7132 11.2069 43.5866 10.8046 41.1057H13.8506V47.1899ZM15.3448 34.7262C15.2299 34.8443 15.1149 35.0215 15 35.1987C14.8851 35.0215 14.7701 34.9034 14.6552 34.7262C14.023 34.0173 13.2759 33.4266 12.4138 33.0722C13.2184 31.6545 14.1954 29.2917 15 25.3341C15.8046 29.2917 16.7816 31.7136 17.5862 33.0722C16.7241 33.4266 15.977 33.9583 15.3448 34.7262ZM16.2069 47.1308V41.1057H19.2529C18.908 43.5276 17.4713 45.6541 16.2069 47.1308ZM19.4828 37.3843L19.4253 38.6248H16.2644C16.4368 37.3843 17.0115 35.6122 19.1379 35.1397C19.4253 35.7894 19.4828 36.7345 19.4828 37.3843ZM23.4483 24.6252C23.3333 22.2034 23.4483 14.8196 27.6437 8.97171V28.701H26.3218C26.092 26.2792 24.7126 25.0978 23.4483 24.6252ZM21.8391 38.6248L21.8966 37.4434C21.8966 37.2662 21.954 36.0848 21.6092 34.9034C23.4483 34.549 25.5172 33.4857 26.2069 31.1229H27.7011V38.6248H21.8391Z" fill="#F2CD13"/>
</svg>
